<?xml version="1.0" encoding="utf-8"?>
<!-- Generator: Adobe Illustrator 19.2.1, SVG Export Plug-In . SVG Version: 6.00 Build 0)  -->
<svg version="1.1" id="Layer_1" xmlns="http://www.w3.org/2000/svg" xmlns:xlink="http://www.w3.org/1999/xlink" x="0px" y="0px"
	 viewBox="0 0 1378 363" style="enable-background:new 0 0 1378 363;" xml:space="preserve">
<style type="text/css">
	.st0{fill:none;stroke:#FFCE00;stroke-width:7;stroke-linejoin:round;stroke-miterlimit:10;}
</style>
<g>
	<path class="st0" d="M0,351.5l2-0.8l2-0.8l2-0.8l2-0.8l2-0.8l2-0.7l2-0.7l2-0.7l2-0.7l2-0.7l2-1.1l2-1.1l2-1.1l2-1.1l2-1.1l2-0.4
		l2-0.4l2-0.4l2-0.4l2-0.4l2-1.4l2-1.4l2-1.4l2-1.4l2-1.4l2-0.7l2-0.7l2-0.7l2-0.7l2-0.7l2-0.9l2-0.9l2-0.9l2-0.9l2-0.9l2-0.8l2-0.8
		l2-0.8l2-0.8l2-0.8l2-0.8l2-0.8l2-0.8l2-0.8l2-0.8l2-0.5l2-0.5l2-0.5l2-0.5l2-0.5l2-0.5l2-0.5l2-0.5l2-0.5l2-0.5l2-0.5l2-0.5l2-0.5
		l2-0.5l2-0.5l2-0.7l2-0.7l2-0.7l2-0.7l2-0.7l2-1.1l2-1.1l2-1.1l2-1.1l2-1.1l2-0.6l2-0.6l2-0.6l2-0.6l2-0.6l2-0.6l2-0.6l2-0.6l2-0.6
		l2-0.6l2-0.6l2-0.6l2-0.6l2-0.6l2-0.6l2-0.5l2-0.5l2-0.5l2-0.5l2-0.5l2-0.4l2-0.4l2-0.4l2-0.4l2-0.4l2-0.4l2-0.4l2-0.4l2-0.4l2-0.4
		l2-0.5l2-0.5l2-0.5l2-0.5l2-0.5l2-0.5l2-0.5l2-0.5l2-0.5l2-0.5l2-0.4l2-0.4l2-0.4l2-0.4l2-0.4l2-0.3l2-0.3l2-0.3l2-0.3l2-0.3l2-0.5
		l2-0.5l2-0.5l2-0.5l2-0.5l2-0.5l2-0.5l2-0.5l2-0.5l2-0.5l2-0.6l2-0.6l2-0.6l2-0.6l2-0.6l2-0.5l2-0.5l2-0.5l2-0.5l2-0.5l2-1.3l2-1.3
		l2-1.3l2-1.3l2-1.3l2-0.4l2-0.4l2-0.4l2-0.4l2-0.4l2-0.5l2-0.5l2-0.5l2-0.5l2-0.5l2-0.6l2-0.6l2-0.6l2-0.6l2-0.6l2-0.5l2-0.5l2-0.5
		l2-0.5l2-0.5l2-0.5l2-0.5l2-0.5l2-0.5l2-0.5l2-0.5l2-0.5l2-0.5l2-0.5l2-0.5l2-0.4l2-0.4l2-0.4l2-0.4l2-0.4l2-0.5l2-0.5l2-0.5l2-0.5
		l2-0.5l2-0.4l2-0.4l2-0.4l2-0.4l2-0.4l2-0.5l2-0.5l2-0.5l2-0.5l2-0.5l2-0.9l2-0.9l2-0.9l2-0.9l2-0.9l2-0.5l2-0.5l2-0.5l2-0.5l2-0.5
		l2-0.5l2-0.5l2-0.5l2-0.5l2-0.5l2-0.5l2-0.5l2-0.5l2-0.5l2-0.5l2-1.1l2-1.1l2-1.1l2-1.1l2-1.1l2-0.5l2-0.5l2-0.5l2-0.5l2-0.5l2-0.5
		l2-0.5l2-0.5l2-0.5l2-0.5l2-0.6l2-0.6l2-0.6l2-0.6l2-0.6l2-0.6l2-0.6l2-0.6l2-0.6l2-0.6l2-0.6l2-0.6l2-0.6l2-0.6l2-0.6l2-0.6l2-0.6
		l2-0.6l2-0.6l2-0.6l2-0.6l2-0.6l2-0.6l2-0.6l2-0.6l2-0.7l2-0.7l2-0.7l2-0.7l2-0.7l2-0.6l2-0.6l2-0.6l2-0.6l2-0.6l2-0.5l2-0.5l2-0.5
		l2-0.5l2-0.5l2-0.5l2-0.5l2-0.5l2-0.5l2-0.5l2-0.6l2-0.6l2-0.6l2-0.6l2-0.6l2-0.6l2-0.6l2-0.6l2-0.6l2-0.6l2-0.6l2-0.6l2-0.6l2-0.6
		l2-0.6l2-0.5l2-0.5l2-0.5l2-0.5l2-0.5l2-0.5l2-0.5l2-0.5l2-0.5l2-0.5l2-0.5l2-0.5l2-0.5l2-0.5l2-0.5l2-0.6l2-0.6l2-0.6l2-0.6l2-0.6
		l2-0.7l2-0.7l2-0.7l2-0.7l2-0.7l2-0.6l2-0.6l2-0.6l2-0.6l2-0.6l2-1.3l2-1.3l2-1.3l2-1.3l2-1.3l2-0.7l2-0.7l2-0.7l2-0.7l2-0.7l2-0.6
		l2-0.6l2-0.6l2-0.6l2-0.6l2-1.1l2-1.1l2-1.1l2-1.1l2-1.1l2-0.6l2-0.6l2-0.6l2-0.6l2-0.6l2-0.7l2-0.7l2-0.7l2-0.7l2-0.7l2-0.6l2-0.6
		l2-0.6l2-0.6l2-0.6l2-0.5l2-0.5l2-0.5l2-0.5l2-0.5l2-0.7l2-0.7l2-0.7l2-0.7l2-0.7l2-0.6l2-0.6l2-0.6l2-0.6l2-0.6l2-1.4l2-1.4l2-1.4
		l2-1.4l2-1.4l2-0.6l2-0.6l2-0.6l2-0.6l2-0.6l2-0.6l2-0.6l2-0.6l2-0.6l2-0.6l2-0.7l2-0.7l2-0.7l2-0.7l2-0.7l2-0.6l2-0.6l2-0.6l2-0.6
		l2-0.6l2-0.7l2-0.7l2-0.7l2-0.7l2-0.7l2-0.5l2-0.5l2-0.5l2-0.5l2-0.5l2-0.8l2-0.8l2-0.8l2-0.8l2-0.8l2-0.6l2-0.6l2-0.6l2-0.6l2-0.6
		l2-0.7l2-0.7l2-0.7l2-0.7l2-0.7l2-0.6l2-0.6l2-0.6l2-0.6l2-0.6l2-0.6l2-0.6l2-0.6l2-0.6l2-0.6l2-0.7l2-0.7l2-0.7l2-0.7l2-0.7l2-0.8
		l2-0.8l2-0.8l2-0.8l2-0.8l2-0.8l2-0.8l2-0.8l2-0.8l2-0.8l2-0.7l2-0.7l2-0.7l2-0.7l2-0.7l2-0.6l2-0.6l2-0.6l2-0.6l2-0.6l2-0.7l2-0.7
		l2-0.7l2-0.7l2-0.7l2-0.7l2-0.7l2-0.7l2-0.7l2-0.7l2-0.7l2-0.7l2-0.7l2-0.7l2-0.7l2-0.7l2-0.7l2-0.7l2-0.7l2-0.7l2-0.6l2-0.6l2-0.6
		l2-0.6l2-0.6l2-0.7l2-0.7l2-0.7l2-0.7l2-0.7l2-0.6l2-0.6l2-0.6l2-0.6l2-0.6l2-0.8l2-0.8l2-0.8l2-0.8l2-0.8l2-0.6l2-0.6l2-0.6l2-0.6
		l2-0.6l2-0.7l2-0.7l2-0.7l2-0.7l2-0.7l2-0.6l2-0.6l2-0.6l2-0.6l2-0.6l2-0.7l2-0.7l2-0.7l2-0.7l2-0.7l2-0.9l2-0.9l2-0.9l2-0.9l2-0.9
		l2-0.7l2-0.7l2-0.7l2-0.7l2-0.7l2-0.8l2-0.8l2-0.8l2-0.8l2-0.8l2-0.6l2-0.6l2-0.6l2-0.6l2-0.6l2,2.7l2,2.7l2,2.7l2,2.7l2,2.7l2,4.4
		l2,4.4l2,4.4l2,4.4l2,4.4l2,3.6l2,3.6l2,3.6l2,3.6l2,3.6l2,3.2l2,3.2l2,3.2l2,3.2l2,3.2l2,3.7l2,3.7l2,3.7l2,3.7l2,3.7l2,2.8l2,2.8
		l2,2.8l2,2.8l2,2.8l2,2.5l2,2.5l2,2.5l2,2.5l2,2.5l2,2.7l2,2.7l2,2.7l2,2.7l2,2.7l2,2.3l2,2.3l2,2.3l2,2.3l2,2.3l2,2.3l2,2.3l2,2.3
		l2,2.3l2,2.3l2,1.9l2,1.9l2,1.9l2,1.9l2,1.9l2,1.9l2,1.9l2,1.9l2,1.9l2,1.9l2,1.9l2,1.9l2,1.9l2,1.9l2,1.9l2,2l2,2l2,2l2,2l2,2
		l2,5.4l2,5.4l2,5.4l2,5.4l2,5.4l2,1.4l2,1.4l2,1.4l2,1.4l2,1.4l2,1.4l2,1.4l2,1.4l2,1.4l2,1.4l2,1.3l2,1.3l2,1.3l2,1.3l2,1.3l2,2.6
		l2,2.6l2,2.6l2,2.6l2,2.6l2,1.5l2,1.5l2,1.5l2,1.5l2,1.5l2,1.5l2,1.5l2,1.5l2,1.5l2,1.5l2,1.5l2,1.5l2,1.5l2,1.5l2,1.5l2,1.5l2,1.5
		l2,1.5l2,1.5l2,1.5l2,1.4l2,1.4l2,1.4l2,1.4l2,1.4l2,2.7l2,2.7l2,2.7l2,2.7l2,2.7l2,1.5l2,1.5l2,1.5l2,1.5l2,1.5l2,1.3l2,1.3l2,1.3
		l2,1.3l2,1.3l2,1.3l2,1.3l2,1.3l2,1.3l2,1.3l2,1.1l2,1.1l2,1.1l2,1.1l2,1.1l2,1.9l2,1.9l2,1.9l2,1.9l2,1.9l2,1l2,1l2,1l2,1l2,1l2,1
		l2,1l2,1l2,1l2,1l2,1.2l2,1.2l2,1.2l2,1.2l2,1.2l2,1.4l2,1.4l2,1.4l2,1.4l2,1.4"/>
</g>
</svg>
